<svg xmlns="http://www.w3.org/2000/svg" width="92" height="27.996" viewBox="0 0 92 27.996">
  <g id="Group_2989" data-name="Group 2989" transform="translate(-1774.956 -871.394)">
    <path id="Path_18911" data-name="Path 18911" d="M1829.224,876.439H1825.3a1.642,1.642,0,0,1-1.823-1.822v-1.4a1.63,1.63,0,0,1,1.823-1.822h13.774a1.63,1.63,0,0,1,1.823,1.822v1.4a1.642,1.642,0,0,1-1.823,1.822h-3.927v13.284a1.642,1.642,0,0,1-1.823,1.822h-2.272a1.642,1.642,0,0,1-1.823-1.822Z" transform="translate(-45.548 0)" fill="#fff"/>
    <path id="Path_18912" data-name="Path 18912" d="M1779.432,980.434a7.054,7.054,0,0,1,3.48-6.075v-3.306a1.058,1.058,0,0,0-1.52-.954,11.52,11.52,0,0,0,3.778,21.783l.424-4.453a7.066,7.066,0,0,1-6.163-7" transform="translate(0 -92.568)" fill="#fff"/>
    <path id="Path_18913" data-name="Path 18913" d="M2034.324,982.075a11.533,11.533,0,0,0-6.215-10.223.992.992,0,0,0-1.452.876v3.451a7.028,7.028,0,0,1,1.782,10.112l3.617,2.638a11.455,11.455,0,0,0,2.268-6.854" transform="translate(-236.297 -94.209)" fill="#fff"/>
    <path id="Path_18914" data-name="Path 18914" d="M1944.237,1259.722l-.52-4.443c-.067.005-.134.01-.2.013a7.127,7.127,0,0,1-1.239-.049l-.425,4.453q.428.049.865.066a11.67,11.67,0,0,0,1.52-.04" transform="translate(-156.682 -360.38)" fill="#d70f52"/>
    <path id="Path_18915" data-name="Path 18915" d="M1976.963,1251.891l.424,4.451a11.466,11.466,0,0,0,2.145-.442l-1.442-4.237a6.958,6.958,0,0,1-1.128.228" transform="translate(-189.644 -357.02)" fill="#f28121"/>
    <path id="Path_18916" data-name="Path 18916" d="M1972.327,1255.416l.52,4.444.188-.02-.424-4.451q-.141.017-.284.027" transform="translate(-185.292 -360.519)" fill="#c46302"/>
    <path id="Path_18917" data-name="Path 18917" d="M1999.841,1243.351l1.35,4.265a11.493,11.493,0,0,0,2-.873l-2.3-3.842a7.02,7.02,0,0,1-1.052.45" transform="translate(-211.122 -348.794)" fill="#2da34a"/>
    <path id="Path_18918" data-name="Path 18918" d="M1995.386,1250.353l1.442,4.237.181-.058-1.35-4.265c-.09.03-.181.059-.273.085" transform="translate(-206.94 -355.711)" fill="#21893d"/>
    <path id="Path_18919" data-name="Path 18919" d="M2021.12,1230.637l2.216,3.888a11.59,11.59,0,0,0,1.779-1.263l-3.057-3.276a7.131,7.131,0,0,1-.937.651" transform="translate(-231.099 -336.669)" fill="#fdc500"/>
    <path id="Path_18920" data-name="Path 18920" d="M2017.032,1240.77l2.3,3.842.166-.093-2.216-3.888q-.123.072-.25.139" transform="translate(-227.261 -346.663)" fill="#cc9c05"/>
    <path id="Path_18921" data-name="Path 18921" d="M2039.995,1210.826l2.983,3.336a11.622,11.622,0,0,0,1.6-1.749l-3.617-2.638a7.152,7.152,0,0,1-.966,1.05" transform="translate(-248.819 -317.694)" fill="#0066a5"/>
    <path id="Path_18922" data-name="Path 18922" d="M2036.438,1227.131l3.057,3.276.143-.125-2.983-3.336q-.107.095-.218.186" transform="translate(-245.48 -333.814)" fill="#00548a"/>
    <path id="Path_18923" data-name="Path 18923" d="M2186.853,1041.642h.188v-.32c0-.471-.547-.6-1.056-.6a4.471,4.471,0,0,0-1.566.358,1.121,1.121,0,0,1-1.66-.565l-.264-.566a1.109,1.109,0,0,1,.51-1.64,8.131,8.131,0,0,1,3.358-.735c2.811,0,4.6,1.564,4.6,4.071v4.712a1.1,1.1,0,0,1-1.226,1.225h-1.113c-.773,0-1.17-.452-1.226-1.3h-.038a3.05,3.05,0,0,1-2.754,1.527,2.978,2.978,0,0,1-3.151-3.015c0-2.3,2.792-3.147,5.4-3.147m-1.057,3.449a1.26,1.26,0,0,0,1.283-1.281v-.188h-.208c-1.075,0-1.849.3-1.849.829,0,.283.208.641.774.641" transform="translate(-381.624 -156.017)" fill="#fff"/>
    <path id="Path_18924" data-name="Path 18924" d="M2369.742,1041.81c0-.471-.245-.678-.585-.678-1.113,0-1.151,1.357-1.151,2.488v2.733a1.1,1.1,0,0,1-1.226,1.225h-1.472a1.1,1.1,0,0,1-1.226-1.225v-4.542c0-.471-.245-.678-.585-.678-1.113,0-1.151,1.357-1.151,2.488v2.733a1.11,1.11,0,0,1-1.245,1.225h-1.472a1.1,1.1,0,0,1-1.226-1.225v-7.332a1.1,1.1,0,0,1,1.226-1.225h1.3c.679,0,1.207.433,1.207,1.376h.038a2.937,2.937,0,0,1,2.7-1.6,2.729,2.729,0,0,1,2.641,1.583h.038a3.338,3.338,0,0,1,2.981-1.583c1.6,0,3.15.829,3.15,3.619v5.164a1.1,1.1,0,0,1-1.226,1.225h-1.471a1.11,1.11,0,0,1-1.245-1.225Z" transform="translate(-547.743 -156.016)" fill="#fff"/>
    <path id="Path_18925" data-name="Path 18925" d="M2626.451,1041.642h.189v-.32c0-.471-.547-.6-1.057-.6a4.473,4.473,0,0,0-1.566.358,1.121,1.121,0,0,1-1.66-.565l-.264-.566a1.109,1.109,0,0,1,.509-1.64,8.134,8.134,0,0,1,3.358-.735c2.811,0,4.6,1.564,4.6,4.071v4.712a1.1,1.1,0,0,1-1.226,1.225h-1.113c-.773,0-1.17-.452-1.226-1.3h-.038a3.05,3.05,0,0,1-2.754,1.527,2.978,2.978,0,0,1-3.151-3.015c0-2.3,2.792-3.147,5.4-3.147m-1.057,3.449a1.26,1.26,0,0,0,1.283-1.281v-.188h-.208c-1.076,0-1.849.3-1.849.829,0,.283.208.641.773.641" transform="translate(-794.32 -156.017)" fill="#fff"/>
    <path id="Path_18926" data-name="Path 18926" d="M2792.537,1045.278l.321-.509c.415-.641.906-.7,1.7-.4a4.279,4.279,0,0,0,1.6.415c.415,0,.566-.17.566-.377,0-.829-4.377-.113-4.377-3.543,0-2.186,1.906-3.3,4.245-3.3a7.294,7.294,0,0,1,2.886.565,1.12,1.12,0,0,1,.453,1.658l-.264.528c-.17.358-.453.961-1.6.584a5.276,5.276,0,0,0-1.546-.339c-.378,0-.529.132-.529.358,0,.792,4.377.075,4.377,3.449,0,1.96-1.566,3.43-4.188,3.43a6.937,6.937,0,0,1-3.321-.81,1.094,1.094,0,0,1-.321-1.715" transform="translate(-955.049 -156.016)" fill="#fff"/>
    <path id="Path_18927" data-name="Path 18927" d="M2948.865,987.625c0-.7-.321-.923-.868-.923-1.226,0-1.471,1.131-1.471,2.149v3.091a1.1,1.1,0,0,1-1.226,1.225h-1.472a1.11,1.11,0,0,1-1.245-1.225v-11.1a1.1,1.1,0,0,1,1.245-1.225h1.472a1.1,1.1,0,0,1,1.226,1.225v2.808a8.408,8.408,0,0,1-.038.848h.038a3.118,3.118,0,0,1,2.717-1.338c1.773,0,3.565.754,3.565,3.619v5.164a1.1,1.1,0,0,1-1.227,1.225h-1.471a1.11,1.11,0,0,1-1.245-1.225Z" transform="translate(-1096.171 -101.605)" fill="#fff"/>
    <path id="Path_18928" data-name="Path 18928" d="M3128.318,1041.642h.189v-.32c0-.471-.547-.6-1.057-.6a4.47,4.47,0,0,0-1.565.358,1.121,1.121,0,0,1-1.66-.565l-.264-.566a1.109,1.109,0,0,1,.509-1.64,8.133,8.133,0,0,1,3.358-.735c2.811,0,4.6,1.564,4.6,4.071v4.712a1.1,1.1,0,0,1-1.227,1.225h-1.113c-.773,0-1.17-.452-1.226-1.3h-.038a3.05,3.05,0,0,1-2.754,1.527,2.977,2.977,0,0,1-3.15-3.015c0-2.3,2.792-3.147,5.4-3.147m-1.056,3.449a1.26,1.26,0,0,0,1.283-1.281v-.188h-.207c-1.075,0-1.849.3-1.849.829,0,.283.208.641.774.641" transform="translate(-1265.475 -156.017)" fill="#fff"/>
  </g>
</svg>
