<svg xmlns="http://www.w3.org/2000/svg" width="366" height="364" viewBox="0 0 23 27.996">
  <g id="Group_2990" data-name="Group 2990" transform="translate(-704.321 -872.591)">
    <path id="Path_18929" data-name="Path 18929" d="M758.567,877.636h-3.913a1.639,1.639,0,0,1-1.817-1.822v-1.4a1.627,1.627,0,0,1,1.817-1.822h13.722a1.627,1.627,0,0,1,1.817,1.822v1.4a1.639,1.639,0,0,1-1.817,1.822h-3.913V890.92a1.639,1.639,0,0,1-1.817,1.822h-2.264a1.639,1.639,0,0,1-1.817-1.822Z" transform="translate(-45.55 0)" fill="#fff"/>
    <path id="Path_18930" data-name="Path 18930" d="M708.793,981.631a7.055,7.055,0,0,1,3.477-6.075v-3.305a1.057,1.057,0,0,0-1.518-.954,11.523,11.523,0,0,0,3.774,21.783l.424-4.453a7.063,7.063,0,0,1-6.156-7" transform="translate(0 -92.568)" fill="#fff"/>
    <path id="Path_18931" data-name="Path 18931" d="M963.682,983.272a11.535,11.535,0,0,0-6.21-10.223.991.991,0,0,0-1.45.877v3.451a7.033,7.033,0,0,1,1.781,10.112l3.614,2.638a11.463,11.463,0,0,0,2.266-6.854" transform="translate(-236.36 -94.209)" fill="#fff"/>
    <path id="Path_18932" data-name="Path 18932" d="M873.6,1260.919l-.519-4.444c-.067.005-.134.01-.2.013a7.127,7.127,0,0,1-1.238-.049l-.424,4.453q.428.049.864.067a11.67,11.67,0,0,0,1.518-.04" transform="translate(-156.716 -360.38)" fill="#d70f52"/>
    <path id="Path_18933" data-name="Path 18933" d="M906.328,1253.088l.424,4.451a11.442,11.442,0,0,0,2.143-.442l-1.44-4.237a6.955,6.955,0,0,1-1.126.228" transform="translate(-189.685 -357.02)" fill="#f28121"/>
    <path id="Path_18934" data-name="Path 18934" d="M901.692,1256.613l.519,4.443.188-.02-.424-4.451q-.141.017-.283.027" transform="translate(-185.33 -360.519)" fill="#c46302"/>
    <path id="Path_18935" data-name="Path 18935" d="M929.206,1244.548l1.349,4.265a11.464,11.464,0,0,0,2-.873l-2.3-3.842a7.014,7.014,0,0,1-1.051.45" transform="translate(-211.169 -348.794)" fill="#2da34a"/>
    <path id="Path_18936" data-name="Path 18936" d="M924.751,1251.55l1.441,4.237.18-.058-1.349-4.265q-.135.045-.272.085" transform="translate(-206.983 -355.711)" fill="#21893d"/>
    <path id="Path_18937" data-name="Path 18937" d="M950.485,1231.834l2.214,3.888a11.565,11.565,0,0,0,1.777-1.263l-3.054-3.276a7.116,7.116,0,0,1-.937.651" transform="translate(-231.152 -336.669)" fill="#fdc500"/>
    <path id="Path_18938" data-name="Path 18938" d="M946.4,1241.967l2.3,3.842.166-.093-2.214-3.888q-.123.072-.25.139" transform="translate(-227.31 -346.663)" fill="#cc9c05"/>
    <path id="Path_18939" data-name="Path 18939" d="M969.36,1212.023l2.98,3.337a11.624,11.624,0,0,0,1.6-1.749l-3.614-2.638a7.158,7.158,0,0,1-.965,1.05" transform="translate(-248.883 -317.694)" fill="#0066a5"/>
    <path id="Path_18940" data-name="Path 18940" d="M965.8,1228.328l3.054,3.276.143-.125-2.98-3.337q-.107.1-.217.186" transform="translate(-245.534 -333.813)" fill="#00548a"/>
  </g>
</svg>
